<svg width="22" height="22" viewBox="0 0 22 22" fill="none" xmlns="http://www.w3.org/2000/svg">
<path d="M15.1249 11C15.1249 9.85417 14.7238 8.88021 13.9218 8.07812C13.1197 7.27604 12.1457 6.875 10.9999 6.875C9.85405 6.875 8.88009 7.27604 8.078 8.07812C7.27592 8.88021 6.87488 9.85417 6.87488 11C6.87488 12.1458 7.27592 13.1198 8.078 13.9219C8.88009 14.724 9.85405 15.125 10.9999 15.125C12.1457 15.125 13.1197 14.724 13.9218 13.9219C14.7238 13.1198 15.1249 12.1458 15.1249 11ZM-0.00012207 9.625V19.25C-0.00012207 20.0091 0.268433 20.6572 0.805542 21.1943C1.34265 21.7314 1.99076 22 2.74988 22H19.2499C20.009 22 20.6571 21.7314 21.1942 21.1943C21.7313 20.6572 21.9999 20.0091 21.9999 19.25V2.75C21.9999 1.99089 21.7313 1.34277 21.1942 0.805664C20.6571 0.268555 20.009 0 19.2499 0H2.74988C1.99076 0 1.34265 0.268555 0.805542 0.805664C0.268433 1.34277 -0.00012207 1.99089 -0.00012207 2.75V6.875H5.49988C6.14441 6.02995 6.94649 5.36035 7.90613 4.86621C8.86576 4.37207 9.89701 4.125 10.9999 4.125C12.1027 4.125 13.134 4.37207 14.0936 4.86621C15.0533 5.36035 15.8553 6.02995 16.4999 6.875H21.9999V9.625H17.746C17.8319 10.0833 17.8749 10.5417 17.8749 11C17.8749 12.2461 17.5669 13.3955 16.951 14.4482C16.3352 15.501 15.5009 16.3353 14.4481 16.9512C13.3954 17.5671 12.246 17.875 10.9999 17.875C9.75379 17.875 8.60437 17.5671 7.55164 16.9512C6.4989 16.3353 5.66459 15.501 5.04871 14.4482C4.43282 13.3955 4.12488 12.2461 4.12488 11C4.12488 10.5417 4.16785 10.0833 4.25378 9.625H-0.00012207Z" fill="#009FAC"/>
</svg>
